<?xml version="1.0" encoding="utf-8"?>
<svg version="1.1" xmlns:xlink="http://www.w3.org/1999/xlink" width="22px" height="22px" xmlns="http://www.w3.org/2000/svg">
  <g transform="matrix(1 0 0 1 -636 -1002 )">
    <path d="M 647 1003  C 652.6 1003  657 1007.4  657 1013  C 657 1018.6  652.6 1023  647 1023  C 641.4 1023  637 1018.6  637 1013  C 637 1007.4  641.4 1003  647 1003  Z " fill-rule="nonzero" fill="#95f204" stroke="none" fill-opacity="0" />
    <path d="M 647 1003  C 652.6 1003  657 1007.4  657 1013  C 657 1018.6  652.6 1023  647 1023  C 641.4 1023  637 1018.6  637 1013  C 637 1007.4  641.4 1003  647 1003  Z " stroke-width="2" stroke="#70b603" fill="none" />
  </g>
</svg>